<mxfile host="app.diagrams.net" modified="2024-02-20T19:20:41.836Z" agent="Mozilla/5.0 (X11; Linux x86_64) AppleWebKit/537.36 (KHTML, like Gecko) Chrome/121.0.0.0 Safari/537.36" etag="JNWn0NvbPDMtCuaBaylJ" version="23.1.5" type="github">
  <diagram name="Page-1" id="1McUho_X-yhC6YgAozrL">
    <mxGraphModel dx="1364" dy="759" grid="1" gridSize="10" guides="1" tooltips="1" connect="1" arrows="1" fold="1" page="1" pageScale="1" pageWidth="850" pageHeight="1100" math="0" shadow="0">
      <root>
        <mxCell id="0" />
        <mxCell id="1" parent="0" />
        <mxCell id="wT0GYXemIt2AO4jlnJiB-3" value="2000 x 1&lt;br&gt;Complex input" style="text;html=1;align=center;verticalAlign=middle;resizable=0;points=[];autosize=1;strokeColor=none;fillColor=none;" parent="1" vertex="1">
          <mxGeometry x="60" y="180" width="100" height="40" as="geometry" />
        </mxCell>
        <mxCell id="wT0GYXemIt2AO4jlnJiB-13" value="Conv 1D&lt;br&gt;kernel: 128 x 1" style="text;html=1;align=center;verticalAlign=middle;resizable=0;points=[];autosize=1;strokeColor=none;fillColor=none;" parent="1" vertex="1">
          <mxGeometry x="237.5" y="32.5" width="100" height="40" as="geometry" />
        </mxCell>
        <mxCell id="wT0GYXemIt2AO4jlnJiB-23" value="" style="shape=cube;whiteSpace=wrap;html=1;boundedLbl=1;backgroundOutline=1;darkOpacity=0.05;darkOpacity2=0.1;size=104;rotation=0;flipV=0;flipH=1;fillColor=#fff2cc;strokeColor=#d6b656;opacity=50;" parent="1" vertex="1">
          <mxGeometry x="185" y="70.5" width="110" height="134" as="geometry" />
        </mxCell>
        <mxCell id="wT0GYXemIt2AO4jlnJiB-24" value="" style="shape=cube;whiteSpace=wrap;html=1;boundedLbl=1;backgroundOutline=1;darkOpacity=0.05;darkOpacity2=0.1;size=104;rotation=0;flipV=0;flipH=1;fillColor=#fff2cc;strokeColor=#d6b656;opacity=70;" parent="1" vertex="1">
          <mxGeometry x="193" y="70.5" width="110" height="134" as="geometry" />
        </mxCell>
        <mxCell id="wT0GYXemIt2AO4jlnJiB-26" style="edgeStyle=none;rounded=0;orthogonalLoop=1;jettySize=auto;html=1;entryX=0;entryY=0;entryDx=0;entryDy=8.5;entryPerimeter=0;endArrow=none;endFill=0;exitX=0;exitY=0;exitDx=0;exitDy=5;exitPerimeter=0;opacity=22;" parent="1" target="wT0GYXemIt2AO4jlnJiB-30" edge="1">
          <mxGeometry relative="1" as="geometry">
            <mxPoint x="160" y="135" as="sourcePoint" />
            <mxPoint x="227" y="166.5" as="targetPoint" />
          </mxGeometry>
        </mxCell>
        <mxCell id="wT0GYXemIt2AO4jlnJiB-27" style="rounded=0;orthogonalLoop=1;jettySize=auto;html=1;exitX=0;exitY=0;exitDx=20;exitDy=15;exitPerimeter=0;entryX=0;entryY=0;entryDx=3;entryDy=11.5;entryPerimeter=0;endArrow=none;endFill=0;opacity=22;" parent="1" target="wT0GYXemIt2AO4jlnJiB-30" edge="1">
          <mxGeometry relative="1" as="geometry">
            <mxPoint x="227" y="166.5" as="targetPoint" />
            <mxPoint x="140" y="145" as="sourcePoint" />
          </mxGeometry>
        </mxCell>
        <mxCell id="wT0GYXemIt2AO4jlnJiB-30" value="" style="shape=cube;whiteSpace=wrap;html=1;boundedLbl=1;backgroundOutline=1;darkOpacity=0.05;darkOpacity2=0.1;size=5;rotation=0;flipV=0;flipH=1;fillColor=#f8cecc;strokeColor=#b85450;opacity=70;" parent="1" vertex="1">
          <mxGeometry x="214" y="161" width="7" height="19" as="geometry" />
        </mxCell>
        <mxCell id="wT0GYXemIt2AO4jlnJiB-31" value="2 x 2000 x 1&lt;br&gt;cart_Relu" style="text;html=1;align=center;verticalAlign=middle;resizable=0;points=[];autosize=1;strokeColor=none;fillColor=none;" parent="1" vertex="1">
          <mxGeometry x="143" y="206.5" width="90" height="40" as="geometry" />
        </mxCell>
        <mxCell id="wT0GYXemIt2AO4jlnJiB-32" value="Conv 1D&lt;br&gt;kernel: 100 x 1" style="text;html=1;align=center;verticalAlign=middle;resizable=0;points=[];autosize=1;strokeColor=none;fillColor=none;" parent="1" vertex="1">
          <mxGeometry x="444" y="31.5" width="100" height="40" as="geometry" />
        </mxCell>
        <mxCell id="wT0GYXemIt2AO4jlnJiB-36" value="" style="shape=cube;whiteSpace=wrap;html=1;boundedLbl=1;backgroundOutline=1;darkOpacity=0.05;darkOpacity2=0.1;size=104;rotation=0;flipV=0;flipH=1;fillColor=#fff2cc;strokeColor=#d6b656;opacity=70;" parent="1" vertex="1">
          <mxGeometry x="384" y="71.5" width="110" height="134" as="geometry" />
        </mxCell>
        <mxCell id="wT0GYXemIt2AO4jlnJiB-37" value="" style="shape=cube;whiteSpace=wrap;html=1;boundedLbl=1;backgroundOutline=1;darkOpacity=0.05;darkOpacity2=0.1;size=104;rotation=0;flipV=0;flipH=1;fillColor=#fff2cc;strokeColor=#d6b656;opacity=70;" parent="1" vertex="1">
          <mxGeometry x="392" y="71.5" width="110" height="134" as="geometry" />
        </mxCell>
        <mxCell id="wT0GYXemIt2AO4jlnJiB-39" style="rounded=0;orthogonalLoop=1;jettySize=auto;html=1;exitX=0;exitY=0;exitDx=12;exitDy=15.5;exitPerimeter=0;entryX=0;entryY=0;entryDx=7;entryDy=12;entryPerimeter=0;endArrow=none;endFill=0;opacity=22;" parent="1" source="wT0GYXemIt2AO4jlnJiB-44" target="wT0GYXemIt2AO4jlnJiB-47" edge="1">
          <mxGeometry relative="1" as="geometry">
            <mxPoint x="442" y="152" as="targetPoint" />
            <mxPoint x="353" y="153" as="sourcePoint" />
          </mxGeometry>
        </mxCell>
        <mxCell id="wT0GYXemIt2AO4jlnJiB-42" style="edgeStyle=none;rounded=0;orthogonalLoop=1;jettySize=auto;html=1;exitX=0;exitY=0;exitDx=0;exitDy=5.5;exitPerimeter=0;entryX=0;entryY=0;entryDx=0;entryDy=7;entryPerimeter=0;endArrow=none;endFill=0;opacity=22;" parent="1" source="wT0GYXemIt2AO4jlnJiB-44" target="wT0GYXemIt2AO4jlnJiB-47" edge="1">
          <mxGeometry relative="1" as="geometry">
            <mxPoint x="353" y="133" as="sourcePoint" />
            <mxPoint x="448.9999999999999" y="147" as="targetPoint" />
          </mxGeometry>
        </mxCell>
        <mxCell id="wT0GYXemIt2AO4jlnJiB-43" value="2 x 2000 x 1&lt;br&gt;cart_Relu" style="text;html=1;align=center;verticalAlign=middle;resizable=0;points=[];autosize=1;strokeColor=none;fillColor=none;" parent="1" vertex="1">
          <mxGeometry x="354" y="206.5" width="90" height="40" as="geometry" />
        </mxCell>
        <mxCell id="wT0GYXemIt2AO4jlnJiB-44" value="" style="shape=cube;whiteSpace=wrap;html=1;boundedLbl=1;backgroundOutline=1;darkOpacity=0.05;darkOpacity2=0.1;size=10;rotation=0;flipV=0;flipH=1;fillColor=#f8cecc;strokeColor=#b85450;" parent="1" vertex="1">
          <mxGeometry x="373" y="108" width="12" height="21" as="geometry" />
        </mxCell>
        <mxCell id="wT0GYXemIt2AO4jlnJiB-47" value="" style="shape=cube;whiteSpace=wrap;html=1;boundedLbl=1;backgroundOutline=1;darkOpacity=0.05;darkOpacity2=0.1;size=5;rotation=0;flipV=0;flipH=1;fillColor=#f8cecc;strokeColor=#b85450;opacity=70;" parent="1" vertex="1">
          <mxGeometry x="392" y="149" width="7" height="19" as="geometry" />
        </mxCell>
        <mxCell id="wT0GYXemIt2AO4jlnJiB-52" value="drop out&lt;br&gt;0.5" style="text;html=1;align=center;verticalAlign=middle;resizable=0;points=[];autosize=1;strokeColor=none;fillColor=none;" parent="1" vertex="1">
          <mxGeometry x="459" y="206.5" width="70" height="40" as="geometry" />
        </mxCell>
        <mxCell id="wT0GYXemIt2AO4jlnJiB-53" style="edgeStyle=none;rounded=0;orthogonalLoop=1;jettySize=auto;html=1;exitX=0;exitY=0;exitDx=0;exitDy=15;exitPerimeter=0;entryX=0;entryY=0;entryDx=0;entryDy=12.75;entryPerimeter=0;endArrow=none;endFill=0;opacity=20;" parent="1" source="wT0GYXemIt2AO4jlnJiB-37" target="wT0GYXemIt2AO4jlnJiB-55" edge="1">
          <mxGeometry relative="1" as="geometry">
            <mxPoint x="517.4999999999998" y="120.74999999999994" as="targetPoint" />
          </mxGeometry>
        </mxCell>
        <mxCell id="wT0GYXemIt2AO4jlnJiB-54" style="edgeStyle=none;rounded=0;orthogonalLoop=1;jettySize=auto;html=1;exitX=0;exitY=0;exitDx=110;exitDy=119;exitPerimeter=0;entryX=0;entryY=0;entryDx=67;entryDy=72.75;entryPerimeter=0;endArrow=none;endFill=0;opacity=20;" parent="1" source="wT0GYXemIt2AO4jlnJiB-37" target="wT0GYXemIt2AO4jlnJiB-55" edge="1">
          <mxGeometry relative="1" as="geometry">
            <mxPoint x="450.5" y="180.75" as="targetPoint" />
          </mxGeometry>
        </mxCell>
        <mxCell id="wT0GYXemIt2AO4jlnJiB-55" value="&amp;nbsp;" style="shape=cube;whiteSpace=wrap;html=1;boundedLbl=1;backgroundOutline=1;darkOpacity=0.05;darkOpacity2=0.1;size=60;rotation=0;flipV=0;flipH=1;fillColor=#647687;strokeColor=#314354;fontColor=#ffffff;opacity=80;" parent="1" vertex="1">
          <mxGeometry x="494" y="115.75" width="67" height="85.5" as="geometry" />
        </mxCell>
        <mxCell id="wT0GYXemIt2AO4jlnJiB-59" value="" style="shape=cube;whiteSpace=wrap;html=1;boundedLbl=1;backgroundOutline=1;darkOpacity=0.05;darkOpacity2=0.1;size=30;rotation=0;flipV=0;flipH=1;opacity=60;fillColor=#6d8764;fontColor=#ffffff;strokeColor=#3A5431;" parent="1" vertex="1">
          <mxGeometry x="553" y="144.5" width="40" height="40" as="geometry" />
        </mxCell>
        <mxCell id="wT0GYXemIt2AO4jlnJiB-62" value="" style="shape=cube;whiteSpace=wrap;html=1;boundedLbl=1;backgroundOutline=1;darkOpacity=0.05;darkOpacity2=0.1;size=10;rotation=0;flipV=0;flipH=1;fillColor=#f8cecc;strokeColor=#b85450;opacity=95;" parent="1" vertex="1">
          <mxGeometry x="140" y="130" width="20" height="20" as="geometry" />
        </mxCell>
        <mxCell id="wT0GYXemIt2AO4jlnJiB-63" value="" style="shape=cube;whiteSpace=wrap;html=1;boundedLbl=1;backgroundOutline=1;darkOpacity=0.05;darkOpacity2=0.1;size=80;rotation=0;flipV=0;flipH=1;opacity=40;" parent="1" vertex="1">
          <mxGeometry x="104" y="72.5" width="110" height="110" as="geometry" />
        </mxCell>
        <mxCell id="wT0GYXemIt2AO4jlnJiB-65" style="edgeStyle=none;rounded=0;orthogonalLoop=1;jettySize=auto;html=1;exitX=0;exitY=0;exitDx=0;exitDy=12.75;exitPerimeter=0;entryX=0;entryY=0;entryDx=10;entryDy=0;entryPerimeter=0;endArrow=none;endFill=0;opacity=22;" parent="1" source="wT0GYXemIt2AO4jlnJiB-55" target="wT0GYXemIt2AO4jlnJiB-59" edge="1">
          <mxGeometry relative="1" as="geometry" />
        </mxCell>
        <mxCell id="wT0GYXemIt2AO4jlnJiB-66" style="edgeStyle=none;rounded=0;orthogonalLoop=1;jettySize=auto;html=1;exitX=0;exitY=0;exitDx=67;exitDy=72.75;exitPerimeter=0;entryX=0;entryY=0;entryDx=40;entryDy=35;entryPerimeter=0;endArrow=none;endFill=0;opacity=22;" parent="1" source="wT0GYXemIt2AO4jlnJiB-55" target="wT0GYXemIt2AO4jlnJiB-59" edge="1">
          <mxGeometry relative="1" as="geometry" />
        </mxCell>
        <mxCell id="wT0GYXemIt2AO4jlnJiB-68" value="100 x 1&lt;br&gt;Complex Dense&lt;br&gt;abs" style="text;html=1;align=center;verticalAlign=middle;resizable=0;points=[];autosize=1;strokeColor=none;fillColor=none;" parent="1" vertex="1">
          <mxGeometry x="502" y="183.5" width="110" height="60" as="geometry" />
        </mxCell>
        <mxCell id="wT0GYXemIt2AO4jlnJiB-69" value="100 x 1&lt;br&gt;Dense&lt;br&gt;Relu" style="text;html=1;align=center;verticalAlign=middle;resizable=0;points=[];autosize=1;strokeColor=none;fillColor=none;" parent="1" vertex="1">
          <mxGeometry x="603" y="179" width="60" height="60" as="geometry" />
        </mxCell>
        <mxCell id="wT0GYXemIt2AO4jlnJiB-70" value="" style="shape=cube;whiteSpace=wrap;html=1;boundedLbl=1;backgroundOutline=1;darkOpacity=0.05;darkOpacity2=0.1;size=10;rotation=0;flipV=0;flipH=1;opacity=60;fillColor=#fa6800;fontColor=#000000;strokeColor=#C73500;" parent="1" vertex="1">
          <mxGeometry x="693" y="160" width="20" height="20" as="geometry" />
        </mxCell>
        <mxCell id="wT0GYXemIt2AO4jlnJiB-71" style="edgeStyle=none;rounded=0;orthogonalLoop=1;jettySize=auto;html=1;exitX=0;exitY=0;exitDx=10;exitDy=0;exitPerimeter=0;entryX=0;entryY=0;entryDx=10;entryDy=0;entryPerimeter=0;endArrow=none;endFill=0;opacity=22;" parent="1" source="wT0GYXemIt2AO4jlnJiB-59" target="wT0GYXemIt2AO4jlnJiB-72" edge="1">
          <mxGeometry relative="1" as="geometry">
            <mxPoint x="597" y="116" as="sourcePoint" />
            <mxPoint x="663" y="148.49999999999994" as="targetPoint" />
          </mxGeometry>
        </mxCell>
        <mxCell id="wT0GYXemIt2AO4jlnJiB-72" value="" style="shape=cube;whiteSpace=wrap;html=1;boundedLbl=1;backgroundOutline=1;darkOpacity=0.05;darkOpacity2=0.1;size=30;rotation=0;flipV=0;flipH=1;fillColor=#fa6800;fontColor=#000000;strokeColor=#C73500;" parent="1" vertex="1">
          <mxGeometry x="623" y="143.5" width="40" height="40" as="geometry" />
        </mxCell>
        <mxCell id="wT0GYXemIt2AO4jlnJiB-74" style="edgeStyle=none;rounded=0;orthogonalLoop=1;jettySize=auto;html=1;exitX=0;exitY=0;exitDx=40;exitDy=35;exitPerimeter=0;entryX=0;entryY=0;entryDx=40;entryDy=35;entryPerimeter=0;endArrow=none;endFill=0;opacity=22;" parent="1" source="wT0GYXemIt2AO4jlnJiB-59" target="wT0GYXemIt2AO4jlnJiB-72" edge="1">
          <mxGeometry relative="1" as="geometry">
            <mxPoint x="603" y="157" as="sourcePoint" />
            <mxPoint x="673" y="158.49999999999994" as="targetPoint" />
          </mxGeometry>
        </mxCell>
        <mxCell id="wT0GYXemIt2AO4jlnJiB-77" value="12 x 1&lt;br&gt;Dense&lt;br&gt;SoftMax" style="text;html=1;align=center;verticalAlign=middle;resizable=0;points=[];autosize=1;strokeColor=none;fillColor=none;" parent="1" vertex="1">
          <mxGeometry x="668" y="179" width="70" height="60" as="geometry" />
        </mxCell>
        <mxCell id="wT0GYXemIt2AO4jlnJiB-78" style="rounded=0;orthogonalLoop=1;jettySize=auto;html=1;exitX=0;exitY=0;exitDx=40;exitDy=35;exitPerimeter=0;entryX=0;entryY=0;entryDx=20;entryDy=15;entryPerimeter=0;endArrow=none;endFill=0;opacity=22;" parent="1" source="wT0GYXemIt2AO4jlnJiB-72" target="wT0GYXemIt2AO4jlnJiB-70" edge="1">
          <mxGeometry relative="1" as="geometry" />
        </mxCell>
        <mxCell id="wT0GYXemIt2AO4jlnJiB-79" style="edgeStyle=none;rounded=0;orthogonalLoop=1;jettySize=auto;html=1;exitX=0;exitY=0;exitDx=10;exitDy=0;exitPerimeter=0;entryX=0;entryY=0;entryDx=10;entryDy=0;entryPerimeter=0;endArrow=none;endFill=0;opacity=22;" parent="1" source="wT0GYXemIt2AO4jlnJiB-72" target="wT0GYXemIt2AO4jlnJiB-70" edge="1">
          <mxGeometry relative="1" as="geometry" />
        </mxCell>
      </root>
    </mxGraphModel>
  </diagram>
</mxfile>
